# xmcd
#
# Track frame offsets: 
#        150
#        15145
#        37612
#        53112
#        69527
#        86515
#        103490
#        115987
#        131175
#        148227
#        162937
#        180522
#
# Disc length: 2542 seconds
#
# Revision: 5
# Processed by: cddbd v1.5PL3 Copyright (c) Steve Scherf et al.
# Submitted via: ExactAudioCopy v0.95a3
#
DISCID=9e09ec0c
DTITLE=Rebecca Lynn Howard - Rebecca Lynn Howard
DYEAR=2000
DGENRE=Country
TTITLE0=Heartsounds
TTITLE1=I Don't Paint Myself Into Corners
TTITLE2=Out Here In The Water
TTITLE3=Melancholy Blue
TTITLE4=You're Real
TTITLE5=Was It As Hard To Be Together
TTITLE6=Move Me
TTITLE7=You're Not A Memory Yet
TTITLE8=Believe It Or Not
TTITLE9=When My Dreams Come True
TTITLE10=Jesus, Daddy And You
TTITLE11=Tennessee In My Windshield
EXTD=
EXTT0=
EXTT1=
EXTT2=
EXTT3=
EXTT4=
EXTT5=
EXTT6=
EXTT7=
EXTT8=
EXTT9=
EXTT10=
EXTT11=
PLAYORDER=
